<?xml version="1.0" encoding="UTF-8"?>
<svg version="1.0" viewBox="0 0 128 128" xmlns="http://www.w3.org/2000/svg">
  <path d="m53.083241 6.8918538-46.109773 47.184089c-15.579296 19.293065 10.602433 17.048329 21.826117 22.605253 4.02611 4.11535-15.431707 7.152953-11.405596 11.271736 4.02611 4.11535 24.345438 7.928656 28.378413 12.044007 4.02611 4.115351-8.240998 8.481261-4.214888 12.596611s13.337992 0.21624 15.08161 9.71689c1.242499 6.78913 16.780608 2.91748 24.379762-2.64288 4.02611-4.11878-7.702124-3.73093-3.676014-7.84628 10.012075-10.23861 19.334253-3.72064 22.759708-13.979837 1.69213-5.069536-14.738378-7.815391-10.705403-11.930741 11.584073-6.765101 51.622073-11.168766 32.624193-30.166652l-47.795043-48.852196c-5.84524-5.6118416-15.59989-5.6736233-21.143086 0zm52.964119 90.949589c0 2.340837 17.2474 3.875087 17.2474-0.552604-2.45754-7.111765-15.20861-6.63124-17.2474 0.552604zm-77.693977 12.438727c4.08446 3.53185 10.393062-0.87868 12.28427-5.80749-3.957464-5.25831-18.771353 0.18878-12.28427 5.80749zm75.531617-7.63005c-5.265182 4.72287 0.59035 9.51439 5.78002 6.46306 1.15669-1.17385-0.0309-5.28921-5.78002-6.46306z"/>
  <path d="m42.048336 79.234841c1.232202 0.765407 19.869695 4.551255 24.424382 5.306366 1.578867 0.332934 0.459931 1.959854-1.71616 3.058196-4.908216 1.304281-28.71478-8.364562-22.708222-8.364562z" fill="#fff"/>
  <path d="m71.439283 10.200609 18.242776 18.527658c1.729889 1.767645 1.705863 5.193099 0.737949 6.178174l-9.05789-7.245625-1.781374 10.729429-7.568263-3.995219-12.119519 7.657504-4.012381-16.142197-6.511109 11.264871h-9.953725c-4.057001 0-4.534093-5.148478-0.847783-8.834789 6.439031-6.950446 13.828814-14.034752 17.844627-18.139806 4.036407-4.1256471 11.069229-4.0089483 15.026692 0z" fill="#fff"/>
</svg>
